<?xml version="1.0" standalone="no"?>
<!DOCTYPE svg PUBLIC "-//W3C//DTD SVG 20010904//EN"
 "http://www.w3.org/TR/2001/REC-SVG-20010904/DTD/svg10.dtd">
<svg version="1.0" xmlns="http://www.w3.org/2000/svg"
 width="3000.000000pt" height="3000.000000pt" viewBox="0 0 3000.000000 3000.000000"
 preserveAspectRatio="xMidYMid meet">

<g transform="translate(0.000000,3000.000000) scale(0.100000,-0.100000)"
fill="#000000" stroke="none">
<path d="M14745 26184 c-112 -19 -265 -69 -365 -118 -47 -23 -301 -158 -566
-299 -425 -227 -489 -259 -555 -272 -1316 -252 -2653 -861 -3729 -1699 -399
-310 -812 -691 -1134 -1046 -72 -79 -142 -155 -156 -167 -14 -12 -259 -183
-545 -379 -286 -196 -545 -374 -575 -397 -270 -201 -436 -459 -510 -787 -23
-105 -27 -171 -50 -850 -18 -540 -18 -546 -44 -620 -72 -203 -165 -536 -230
-820 -280 -1224 -297 -2515 -50 -3748 63 -319 134 -595 239 -932 l55 -175 50
-660 c59 -775 65 -841 92 -960 66 -288 246 -565 485 -742 40 -29 329 -213 643
-408 l570 -354 96 -103 c1073 -1142 2411 -1980 3894 -2439 205 -64 543 -152
720 -190 98 -20 147 -42 735 -322 771 -367 737 -352 863 -393 194 -64 443 -79
636 -38 201 42 254 67 992 462 l491 263 169 38 c1293 294 2474 852 3529 1670
297 230 570 475 885 792 l235 237 625 427 c648 444 711 490 820 597 191 189
328 472 360 747 5 42 18 369 30 726 l21 650 54 175 c163 524 279 1056 344
1580 157 1251 41 2569 -329 3745 l-40 130 -60 750 c-33 413 -64 775 -69 805
-45 270 -170 510 -365 706 -115 114 -176 156 -765 520 l-483 299 -153 165
c-285 308 -635 641 -920 875 -1109 910 -2380 1528 -3775 1835 l-185 41 -605
288 c-660 315 -702 334 -805 363 -171 48 -403 61 -570 32z m731 -644 c2004
-114 3840 -864 5354 -2186 181 -158 656 -634 816 -818 1784 -2051 2520 -4731
2032 -7406 -214 -1178 -687 -2326 -1376 -3340 -455 -670 -1018 -1290 -1662
-1829 -141 -119 -487 -381 -650 -493 -528 -363 -1147 -691 -1765 -935 -1615
-638 -3428 -778 -5150 -398 -978 216 -1947 618 -2803 1162 -223 141 -318 207
-567 394 -861 643 -1605 1450 -2185 2369 -197 311 -458 805 -608 1146 -726
1659 -923 3514 -561 5294 304 1493 986 2867 2003 4036 160 184 635 660 816
818 1506 1315 3348 2070 5330 2185 203 12 774 12 976 1z"/>
<path d="M14545 25150 c-1054 -63 -2061 -310 -3010 -738 -2437 -1100 -4224
-3308 -4780 -5905 -183 -857 -230 -1749 -139 -2637 145 -1427 680 -2828 1528
-4009 458 -637 1036 -1240 1651 -1722 1208 -948 2653 -1550 4165 -1738 686
-85 1430 -85 2120 0 2472 305 4707 1716 6061 3824 1028 1601 1476 3479 1283
5385 -158 1574 -783 3104 -1779 4355 -392 493 -906 1003 -1405 1395 -624 490
-1353 909 -2090 1202 -792 315 -1578 498 -2460 573 -219 19 -921 28 -1145 15z
m880 -500 c1789 -97 3427 -753 4790 -1919 338 -289 770 -740 1051 -1096 1318
-1668 1905 -3778 1638 -5885 -310 -2445 -1769 -4623 -3929 -5862 -1001 -575
-2079 -912 -3270 -1024 -230 -21 -896 -30 -1148 -15 -855 52 -1651 226 -2432
531 -1310 512 -2466 1366 -3342 2468 -1655 2081 -2150 4862 -1313 7372 393
1181 1038 2225 1916 3104 1306 1306 3009 2114 4839 2296 393 39 830 50 1200
30z"/>
<path d="M14460 23460 c-107 -16 -196 -29 -198 -29 -2 -1 -2 -11 0 -23 2 -18
13 -24 60 -33 71 -14 104 -43 123 -108 16 -54 68 -411 63 -435 -2 -9 -109 85
-284 249 -154 145 -290 272 -302 283 -21 18 -25 18 -197 -5 l-175 -24 0 -26
c0 -24 5 -27 44 -33 53 -8 104 -40 127 -81 21 -35 89 -507 89 -614 0 -60 -3
-71 -26 -94 -14 -14 -44 -32 -67 -40 -36 -12 -41 -17 -39 -38 2 -13 5 -25 5
-25 5 -3 399 55 404 59 2 3 2 14 -1 25 -5 14 -19 22 -53 27 -118 17 -126 35
-174 375 -21 145 -36 266 -34 268 2 2 158 -142 346 -319 329 -311 344 -324
378 -321 63 4 81 11 81 31 0 10 -18 149 -39 307 -62 450 -63 460 -51 504 12
43 50 76 99 86 26 6 31 11 31 35 0 16 -3 29 -7 28 -5 -1 -96 -14 -203 -29z"/>
<path d="M14912 23465 c2 -22 12 -29 56 -44 29 -10 59 -24 65 -30 13 -13 12
-100 -8 -478 -8 -150 -19 -282 -25 -293 -10 -19 -65 -40 -107 -40 -18 0 -23
-6 -23 -25 0 -14 1 -25 3 -25 105 -7 774 -40 823 -40 l71 0 12 128 c7 70 15
135 17 145 4 13 -1 17 -23 17 -24 -1 -33 -10 -63 -61 -82 -144 -120 -165 -286
-156 -109 6 -150 19 -161 51 -8 24 -6 248 3 319 l6 48 67 -6 c128 -13 160 -36
183 -134 10 -46 14 -51 38 -51 l27 0 6 152 c11 245 11 248 -16 248 -18 0 -26
-10 -40 -49 -9 -27 -30 -60 -46 -74 -34 -28 -110 -41 -177 -31 l-45 6 6 112
c3 61 8 144 11 185 l6 74 106 -7 c59 -4 123 -11 143 -17 42 -11 120 -89 143
-142 12 -31 49 -57 62 -45 2 3 7 59 11 126 l6 122 -39 0 c-50 0 -610 27 -727
35 l-88 7 3 -27z"/>
<path d="M16245 23351 c-94 -24 -182 -105 -205 -186 -19 -67 -8 -164 24 -219
33 -56 81 -95 222 -179 177 -106 217 -165 172 -254 -30 -62 -65 -85 -130 -91
-77 -6 -154 26 -211 87 -64 68 -92 129 -121 264 -5 21 -12 27 -34 27 l-28 0
-31 -162 c-17 -90 -29 -166 -26 -170 8 -14 58 -9 81 8 20 14 25 13 64 -14 124
-85 229 -116 373 -110 83 3 110 9 157 31 103 50 158 139 158 255 -1 126 -46
183 -240 301 -67 40 -135 85 -151 98 -90 76 -74 193 33 237 42 17 53 18 104 7
104 -24 169 -107 202 -259 13 -62 20 -76 40 -83 14 -5 26 -8 28 -6 9 8 64 303
59 314 -6 17 -55 16 -78 -1 -16 -12 -25 -9 -80 28 -34 23 -87 50 -117 60 -60
20 -215 30 -265 17z"/>
<path d="M13110 23199 c-107 -32 -212 -64 -233 -70 -31 -8 -38 -14 -35 -32 3
-20 10 -22 69 -25 50 -2 71 -8 84 -22 24 -26 216 -676 213 -720 -3 -31 -8 -38
-55 -60 -41 -19 -53 -30 -53 -47 0 -13 5 -23 11 -23 7 0 121 32 255 72 229 67
244 73 244 95 0 23 -3 24 -65 21 -54 -2 -69 1 -85 17 -20 21 -220 675 -220
721 0 25 36 58 87 79 25 11 30 18 26 34 -3 14 -13 21 -27 20 -11 0 -109 -27
-216 -60z"/>
<path d="M17175 23063 c-175 -70 -230 -290 -109 -431 19 -22 84 -82 144 -132
110 -92 160 -154 160 -200 0 -13 -9 -43 -21 -66 -55 -115 -222 -109 -327 12
-51 58 -78 128 -92 241 -6 48 -12 89 -14 90 -1 1 -13 4 -26 5 -21 3 -27 -8
-76 -142 -29 -80 -53 -152 -53 -161 -1 -22 37 -31 75 -17 30 10 34 9 69 -27
86 -86 210 -147 340 -167 178 -28 332 69 365 228 25 120 -19 200 -191 345
-148 125 -174 157 -174 219 0 60 25 97 82 122 49 22 92 19 148 -9 87 -44 131
-127 141 -271 4 -48 12 -90 18 -94 33 -22 43 -7 94 135 29 78 52 145 52 149 0
19 -43 29 -71 18 -28 -12 -32 -10 -77 32 -99 93 -210 138 -336 137 -50 0 -96
-6 -121 -16z"/>
<path d="M12533 23008 c-12 -6 -26 -22 -31 -36 -7 -23 -14 -25 -73 -29 -243
-13 -431 -163 -432 -346 -1 -106 56 -199 150 -247 54 -28 116 -31 348 -17 116
8 134 7 165 -10 55 -28 83 -78 77 -136 -5 -58 -29 -93 -89 -130 -115 -72 -266
-43 -408 79 -48 41 -80 48 -96 23 -4 -8 119 -281 137 -302 14 -17 51 5 65 39
14 33 16 34 73 34 130 0 287 61 384 150 165 150 149 389 -31 477 -65 32 -116
35 -362 20 -156 -10 -191 0 -223 63 -40 78 -2 165 91 208 95 43 180 20 304
-83 67 -56 82 -62 107 -46 12 8 2 36 -54 155 -38 80 -71 146 -74 145 -3 0 -16
-5 -28 -11z"/>
<path d="M11515 22509 c-88 -61 -161 -113 -163 -117 -1 -4 4 -16 11 -25 11
-17 15 -17 49 -2 21 8 56 15 80 15 37 0 47 -6 87 -48 55 -56 265 -366 292
-429 26 -60 25 -144 -2 -200 -37 -77 -158 -153 -242 -153 -51 1 -108 33 -162
92 -60 66 -321 454 -330 491 -6 21 1 34 33 69 36 38 39 45 27 62 -13 17 -28 8
-219 -121 -113 -76 -206 -141 -206 -144 0 -3 6 -13 13 -23 11 -16 15 -16 49
-1 54 22 81 19 110 -12 14 -16 85 -118 159 -228 203 -303 253 -342 424 -333
74 4 95 9 170 47 163 81 262 203 273 338 8 101 -9 137 -170 381 -81 123 -152
238 -156 255 -12 44 2 85 42 126 30 31 33 38 22 54 -7 9 -17 17 -22 16 -5 0
-81 -50 -169 -110z"/>
<path d="M19107 21989 c-89 -21 -152 -73 -188 -154 -46 -106 -31 -185 71 -355
85 -143 100 -177 100 -234 0 -36 -6 -52 -30 -80 -55 -62 -132 -70 -210 -21
-117 74 -156 211 -111 397 17 73 17 78 1 93 -9 8 -19 15 -23 15 -4 0 -54 -59
-112 -131 -100 -126 -105 -133 -89 -150 11 -12 31 -19 55 -19 36 0 40 -3 61
-46 42 -90 139 -196 230 -252 59 -37 146 -62 213 -62 149 0 275 120 275 262 0
73 -12 110 -66 203 -152 260 -164 308 -95 376 34 34 44 39 85 39 63 0 106 -20
148 -69 62 -73 72 -145 37 -277 -28 -102 -28 -104 -3 -120 19 -13 26 -7 123
111 l103 125 -24 20 c-15 14 -32 19 -50 15 -25 -4 -30 1 -55 53 -33 68 -149
190 -210 221 -47 23 -146 52 -178 50 -11 -1 -37 -5 -58 -10z"/>
<path d="M10463 21662 c-80 -29 -152 -89 -375 -316 -190 -193 -205 -212 -191
-228 14 -16 18 -15 63 13 26 16 57 29 69 29 15 0 101 -76 276 -246 140 -135
261 -256 269 -269 23 -35 20 -57 -15 -105 -31 -42 -31 -43 -12 -62 19 -19 23
-16 255 225 207 216 239 254 273 322 30 61 38 88 37 130 -1 138 -131 244 -264
216 -52 -12 -141 -52 -169 -77 -35 -31 -36 -10 -3 59 60 127 45 228 -42 289
-52 37 -106 43 -171 20z m-12 -211 c79 -49 115 -137 90 -214 -7 -19 -30 -56
-53 -82 l-41 -47 -124 124 c-67 67 -123 127 -123 133 0 15 69 79 105 98 47 25
95 21 146 -12z m325 -270 c83 -38 144 -123 144 -202 0 -80 -76 -169 -145 -169
-23 0 -53 25 -152 122 -67 67 -123 127 -123 133 0 10 54 65 92 94 25 18 88 40
118 40 14 0 43 -8 66 -18z"/>
<path d="M19895 21406 c-20 -14 -19 -15 3 -60 28 -59 28 -88 0 -120 -13 -13
-141 -124 -286 -245 -174 -146 -271 -221 -286 -221 -12 0 -41 16 -64 35 -36
32 -43 34 -62 23 -11 -7 -19 -15 -18 -19 8 -18 573 -679 581 -679 5 0 60 39
124 86 109 81 114 86 98 104 -15 17 -21 17 -74 4 -32 -7 -87 -16 -122 -20 -62
-6 -66 -5 -109 28 -56 42 -158 163 -167 196 -11 45 11 75 141 186 l129 110 24
-30 c72 -86 83 -107 83 -154 0 -34 -8 -58 -31 -94 -28 -45 -29 -49 -14 -67 16
-17 23 -12 153 98 183 154 170 140 150 159 -15 15 -20 15 -64 0 -66 -22 -102
-20 -144 9 -46 32 -115 114 -104 124 92 78 262 219 271 224 13 8 156 -163 172
-206 16 -42 13 -87 -10 -162 -16 -52 -18 -70 -8 -81 6 -8 14 -14 18 -14 8 0
175 139 178 149 2 4 -493 598 -536 644 -4 4 -16 1 -26 -7z"/>
<path d="M20646 20487 c-16 -12 -17 -18 -5 -75 13 -61 13 -63 -11 -86 -29 -27
-611 -353 -647 -362 -20 -5 -32 2 -67 40 -45 48 -52 51 -74 37 -10 -6 16 -60
109 -227 67 -120 124 -221 126 -224 9 -10 38 19 35 36 -14 109 -14 109 4 125
11 9 77 49 148 89 99 55 131 69 137 58 5 -7 9 -16 9 -19 0 -15 -112 -274 -164
-377 l-57 -114 87 -156 c48 -87 88 -158 90 -160 1 -2 12 2 24 8 15 8 19 17 15
28 -17 40 -17 104 0 154 23 72 154 391 165 402 5 5 25 -5 46 -24 104 -90 236
-96 333 -14 86 72 86 195 -1 369 -37 72 -267 487 -277 498 -4 4 -15 1 -25 -6z
m184 -396 c10 -21 24 -59 31 -85 15 -60 -7 -125 -56 -162 -42 -32 -125 -64
-166 -64 -40 0 -100 32 -133 71 -35 41 -61 92 -50 96 5 2 83 46 174 97 91 51
168 91 173 89 4 -2 16 -21 27 -42z"/>
<path d="M9054 19953 c-6 -15 -38 -86 -70 -157 -57 -125 -58 -128 -39 -143 18
-12 21 -12 30 3 23 39 58 74 74 74 10 0 29 -12 43 -27 33 -37 233 -332 227
-337 -7 -7 -322 -36 -391 -36 l-68 0 0 30 c0 17 7 46 14 65 14 33 14 36 -6 46
-11 6 -23 7 -27 2 -5 -4 -56 -116 -115 -247 -101 -224 -107 -241 -90 -253 24
-18 27 -17 46 17 19 34 67 66 118 80 33 9 289 40 456 56 69 6 74 5 180 -41 60
-26 120 -58 134 -71 24 -23 24 -25 11 -85 -10 -51 -10 -63 1 -70 7 -5 17 -7
22 -6 5 2 58 110 117 240 104 230 107 238 86 248 -17 10 -24 8 -39 -12 -45
-57 -71 -79 -94 -79 -31 0 -230 93 -263 123 -26 24 -207 294 -262 392 -27 48
-34 74 -39 135 -4 65 -8 75 -25 78 -14 2 -24 -6 -31 -25z"/>
<path d="M18725 19438 c-580 -202 -1023 -432 -1665 -863 -894 -600 -1818
-1363 -2854 -2359 l-186 -178 -107 68 c-338 214 -621 444 -914 741 -237 240
-401 439 -549 666 -35 53 -66 97 -70 97 -9 0 -944 -849 -948 -861 -5 -13 13
-65 79 -235 280 -715 828 -1484 1581 -2220 527 -514 1099 -940 1293 -962 l45
-5 114 234 c669 1381 1591 2761 2890 4329 202 243 714 843 871 1020 354 399
475 540 463 539 -7 0 -26 -5 -43 -11z"/>
<path d="M21213 19443 c-8 -3 -13 -24 -13 -54 0 -27 -6 -65 -14 -83 -10 -24
-109 -117 -338 -316 -177 -156 -332 -291 -342 -301 -20 -18 -20 -19 0 -81 l20
-63 105 -7 c57 -4 246 -16 419 -28 404 -27 412 -28 471 -90 36 -38 51 -48 68
-43 12 3 20 11 18 17 -2 6 -30 88 -62 181 -32 94 -60 172 -61 173 -1 2 -12 1
-23 -3 -18 -5 -20 -14 -18 -78 3 -106 15 -103 -357 -87 -166 7 -306 15 -313
19 -16 8 489 446 514 446 11 0 30 -19 48 -47 17 -26 35 -48 40 -48 38 0 35 18
-46 258 -45 133 -86 242 -93 241 -6 0 -17 -3 -23 -6z"/>
<path d="M8576 18832 c-6 -11 -217 -825 -214 -827 2 -1 12 -5 23 -9 16 -5 25
3 45 40 34 65 56 77 113 64 108 -24 661 -171 678 -181 24 -13 33 -48 25 -103
-6 -41 -5 -44 18 -48 23 -5 26 0 45 71 73 275 108 420 103 425 -16 17 -43 3
-61 -31 -10 -21 -29 -47 -41 -58 l-22 -20 -171 44 c-95 24 -173 45 -175 46 -2
1 5 32 14 68 10 43 27 79 48 102 27 33 39 38 103 48 58 9 73 15 77 31 3 11 4
21 3 21 -19 12 -378 95 -386 91 -22 -14 -10 -42 30 -64 75 -43 94 -108 65
-221 -8 -29 -16 -54 -18 -56 -2 -2 -84 18 -183 44 -158 42 -180 50 -177 67 2
10 17 69 34 129 26 90 38 116 65 142 32 31 126 73 161 73 22 0 42 19 42 40 0
12 -29 24 -120 47 -66 17 -122 28 -124 25z"/>
<path d="M21580 18176 c0 -62 -17 -102 -48 -115 -30 -11 -684 -131 -718 -131
-27 0 -48 25 -64 75 -16 50 -23 58 -47 51 -19 -6 -18 -15 24 -244 55 -305 49
-284 76 -280 19 3 23 10 27 67 4 54 9 67 30 81 31 22 707 145 743 136 17 -4
31 -21 46 -55 11 -27 21 -55 21 -61 0 -10 36 -6 49 6 3 2 -62 374 -85 487 -4
20 -11 27 -30 27 -22 0 -24 -4 -24 -44z"/>
<path d="M8325 17748 c-7 -44 -55 -458 -55 -480 0 -12 8 -18 24 -18 20 0 27 8
40 47 21 62 42 83 82 83 45 0 697 -78 718 -86 25 -10 36 -37 36 -93 0 -30 5
-51 13 -54 6 -3 2 -6 -9 -6 -17 -1 -23 -9 -29 -38 -9 -51 -27 -82 -72 -125
-49 -46 -326 -278 -334 -278 -3 0 -16 26 -29 57 -29 70 -94 138 -146 152 -138
38 -240 -14 -283 -145 -19 -57 -21 -88 -21 -273 0 -114 3 -269 7 -344 6 -132
7 -137 28 -137 18 0 25 10 38 58 9 33 24 65 33 73 12 10 97 15 374 22 197 5
369 7 383 3 26 -6 42 -36 53 -98 6 -38 17 -45 42 -29 10 6 11 59 6 260 l-7
252 -26 -3 c-22 -3 -27 -9 -33 -48 -5 -30 -16 -53 -33 -67 -24 -21 -36 -23
-143 -23 -64 0 -134 -3 -154 -6 -35 -6 -38 -5 -38 18 0 20 23 44 103 110 56
46 151 119 211 163 l109 78 -8 180 c-5 130 -4 182 5 187 9 5 69 446 70 513 0
11 -8 17 -25 17 -20 0 -26 -7 -35 -40 -6 -22 -21 -52 -34 -67 l-23 -27 -364
43 c-200 23 -371 47 -381 52 -27 15 -38 43 -38 98 0 47 -2 51 -25 51 -19 0
-25 -6 -30 -32z m299 -1113 c57 -27 88 -81 94 -165 l5 -70 -89 0 c-49 0 -140
-3 -201 -7 l-113 -6 0 69 c0 72 22 136 53 163 53 43 177 51 251 16z"/>
<path d="M21151 17434 c-131 -35 -234 -116 -294 -232 -42 -82 -57 -147 -57
-257 0 -180 79 -317 229 -399 l50 -27 16 30 c15 30 15 31 -14 45 -16 9 -53 38
-83 65 -91 84 -126 195 -94 305 22 73 71 128 150 165 83 39 160 54 291 55 203
1 338 -56 382 -163 20 -47 18 -142 -4 -188 -32 -69 -134 -148 -235 -184 -33
-11 -38 -17 -38 -44 l0 -30 162 8 c90 4 169 10 176 12 19 7 14 39 -9 69 l-21
27 23 72 c35 105 32 252 -6 357 -15 41 -38 90 -50 110 -57 90 -168 170 -284
204 -68 20 -216 20 -290 0z"/>
<path d="M20774 15998 c-40 -296 -56 -445 -49 -449 5 -4 64 -16 130 -28 66
-12 128 -25 138 -27 13 -4 17 1 17 19 0 20 -17 39 -76 84 -112 85 -119 97
-118 201 1 106 19 197 45 223 14 14 33 19 72 19 54 -1 303 -33 311 -41 8 -8
-21 -155 -35 -178 -17 -26 -86 -61 -121 -61 -28 0 -58 -23 -58 -44 0 -9 48
-20 163 -35 89 -12 179 -25 200 -28 35 -5 37 -4 37 20 0 21 -10 31 -52 54 -74
39 -93 79 -83 179 4 49 12 77 20 81 12 4 320 -32 351 -42 8 -2 7 -30 -2 -100
-25 -183 -43 -212 -161 -267 -37 -18 -65 -38 -68 -49 -4 -11 -5 -22 -3 -24 7
-7 231 -35 237 -30 3 3 30 191 61 418 39 284 53 414 46 419 -23 16 -36 6 -57
-41 -39 -92 -11 -90 -406 -37 -191 26 -362 52 -380 57 -35 11 -44 29 -48 98
-3 40 -6 46 -27 49 l-24 3 -60 -443z"/>
<path d="M8815 15878 c-2 -7 20 -116 49 -243 51 -222 54 -230 77 -230 22 0 24
4 29 67 3 37 10 72 17 79 11 11 192 59 224 59 19 0 61 -45 84 -90 10 -19 20
-64 23 -100 4 -54 0 -74 -17 -107 -55 -108 -190 -185 -401 -228 -172 -35 -333
-3 -395 79 -57 75 -70 189 -29 267 21 43 129 148 177 174 37 20 45 37 27 65
-8 13 -32 9 -172 -26 l-163 -40 3 -30 c2 -16 9 -32 15 -36 37 -23 37 -23 26
-88 -36 -216 82 -477 258 -572 185 -101 455 -65 616 82 60 55 118 157 131 230
12 70 8 196 -9 260 -29 114 -112 283 -179 364 l-23 28 -116 -27 c-64 -15 -127
-25 -140 -21 -15 3 -33 22 -48 51 -23 44 -55 60 -64 33z"/>
<path d="M20676 15415 c-4 -15 0 -37 9 -56 16 -30 15 -30 -25 -77 -53 -59
-115 -188 -131 -270 -16 -83 -8 -195 19 -254 45 -101 149 -168 262 -168 109 1
164 42 302 227 130 173 176 202 261 165 56 -25 81 -67 81 -137 0 -116 -90
-202 -235 -226 -132 -22 -134 -23 -137 -50 -3 -24 3 -26 148 -68 127 -37 153
-42 161 -30 12 19 11 46 -1 69 -8 15 0 33 45 95 131 183 135 404 10 527 -97
96 -284 90 -382 -13 -18 -19 -70 -85 -116 -148 -88 -118 -149 -171 -196 -171
-14 0 -45 9 -68 19 -132 60 -98 279 57 372 48 29 115 51 189 63 69 11 75 14
82 39 7 26 5 28 -49 43 -32 9 -103 29 -158 45 -56 16 -106 29 -112 29 -5 0
-13 -11 -16 -25z"/>
<path d="M9376 14789 c-71 -27 -131 -51 -133 -53 -3 -2 0 -13 6 -24 8 -15 25
-20 93 -25 123 -9 170 -28 207 -86 40 -63 91 -187 91 -223 0 -18 -9 -38 -25
-52 -22 -20 -292 -146 -313 -146 -13 0 -62 134 -62 171 0 38 28 84 73 120 28
21 32 35 18 57 -7 11 -47 -3 -187 -64 -99 -43 -180 -79 -182 -80 -2 -1 2 -12
8 -24 11 -20 17 -22 61 -16 61 8 107 -10 142 -55 30 -40 70 -129 62 -138 -4
-3 -79 -38 -168 -78 l-162 -71 -32 66 c-18 37 -42 96 -54 131 -21 62 -21 66
-5 117 9 30 33 74 52 100 34 44 39 84 11 84 -13 0 -198 -79 -210 -89 -6 -6
315 -756 332 -772 3 -4 16 -3 28 2 19 7 21 12 12 41 -15 53 -11 96 10 115 11
9 167 81 348 160 232 102 334 142 351 138 12 -3 37 -26 54 -50 18 -25 37 -45
42 -45 40 1 35 19 -65 246 -55 126 -137 311 -181 412 -44 100 -83 182 -87 181
-3 0 -64 -23 -135 -50z"/>
<path d="M19798 13486 c-136 -195 -249 -358 -250 -364 -3 -9 39 -45 170 -147
59 -46 63 -47 76 -30 12 16 8 29 -31 107 -26 49 -48 107 -50 133 -5 39 0 54
37 118 57 101 110 157 146 157 29 0 114 -55 454 -293 118 -83 177 -130 184
-148 6 -19 3 -37 -16 -77 l-25 -53 20 -14 c12 -8 22 -14 23 -12 10 14 282 406
288 416 6 9 3 18 -9 27 -15 11 -24 7 -68 -27 -39 -31 -56 -39 -75 -34 -39 10
-612 414 -624 440 -8 18 -5 34 15 77 23 53 24 55 6 66 -10 7 -20 12 -22 12 -1
0 -114 -159 -249 -354z"/>
<path d="M9997 13785 c-18 -13 -18 -16 3 -74 21 -55 21 -63 7 -84 -12 -19
-616 -430 -653 -444 -7 -3 -27 22 -49 62 -45 80 -44 104 12 215 21 41 39 77
41 80 1 3 -4 14 -11 24 -13 18 -20 14 -123 -54 -60 -40 -111 -74 -113 -76 -5
-4 499 -763 511 -770 4 -3 57 29 118 69 109 73 110 74 93 95 -16 19 -23 20
-73 11 -30 -5 -82 -7 -115 -3 -53 6 -64 11 -95 46 -20 21 -44 52 -53 67 l-17
29 323 213 c213 141 333 214 355 217 28 4 39 -2 72 -37 43 -45 52 -48 69 -27
9 11 -17 57 -130 227 -78 118 -144 217 -148 221 -3 4 -14 1 -24 -7z"/>
<path d="M10282 12784 c-145 -140 -282 -268 -304 -284 -53 -39 -103 -40 -159
-3 -37 24 -41 25 -56 10 -15 -15 -7 -25 94 -134 168 -179 170 -180 190 -160
16 15 15 19 -4 59 -35 71 -36 85 -14 131 20 41 335 366 346 356 2 -3 -18 -189
-46 -413 l-50 -409 107 -111 c59 -61 116 -120 125 -130 18 -19 19 -19 38 -2
20 18 20 19 2 55 -27 53 -34 97 -21 135 7 24 72 94 210 229 109 108 217 209
241 226 53 39 97 40 157 5 40 -24 46 -25 60 -11 14 14 8 23 -56 94 -39 43
-102 109 -141 148 -67 65 -72 68 -88 53 -16 -16 -15 -21 10 -70 32 -63 33 -77
8 -126 -20 -38 -397 -419 -406 -410 -3 3 20 215 52 471 l57 467 -39 40 c-21
22 -42 40 -45 40 -3 -1 -123 -115 -268 -256z"/>
<path d="M19168 12726 l-307 -314 100 -111 c55 -61 104 -111 108 -111 5 0 14
6 20 13 8 11 5 32 -14 88 -14 41 -28 100 -32 131 -7 69 9 98 107 196 66 65 93
78 134 68 28 -7 532 -497 541 -526 7 -21 -16 -73 -46 -106 -19 -20 -19 -21 1
-39 25 -22 9 -35 223 188 145 152 159 169 145 184 -14 14 -20 13 -60 -11 -80
-47 -72 -52 -354 222 -141 136 -262 259 -270 275 -13 24 -13 31 1 61 9 19 25
42 36 52 18 16 18 18 3 36 -10 10 -20 18 -23 18 -3 -1 -144 -142 -313 -314z"/>
<path d="M18578 12197 c-185 -134 -206 -152 -197 -170 11 -20 13 -20 88 8 42
15 46 15 70 -3 28 -20 179 -220 180 -237 0 -5 -25 -28 -55 -50 -76 -54 -173
-160 -204 -220 -20 -40 -25 -65 -25 -125 0 -65 4 -82 31 -130 20 -36 47 -66
80 -88 46 -32 53 -34 119 -30 51 3 87 11 133 33 56 27 550 372 551 386 1 3 -5
13 -11 22 -12 15 -18 15 -75 -6 l-62 -22 -26 25 c-24 22 -392 524 -422 574
-22 37 -15 64 28 107 40 40 41 42 23 59 -18 17 -26 13 -226 -133z m310 -629
c137 -191 133 -170 42 -225 -93 -56 -180 -27 -256 83 -46 66 -57 140 -29 195
16 32 100 119 114 119 3 -1 61 -78 129 -172z"/>
<path d="M11270 12300 c-9 -17 -6 -27 23 -61 42 -49 49 -70 32 -103 -19 -36
-415 -558 -440 -578 -27 -23 -37 -22 -96 8 -40 20 -54 23 -65 13 -8 -6 -14
-15 -14 -20 0 -10 405 -319 418 -319 5 0 15 7 22 15 10 12 6 22 -23 57 -47 59
-51 75 -28 114 23 39 371 501 414 551 35 40 65 42 122 8 41 -24 43 -24 59 -6
17 18 9 25 -186 173 -112 85 -208 157 -215 161 -7 5 -16 -1 -23 -13z"/>
<path d="M4248 4558 c-36 -12 -35 -31 2 -110 16 -34 30 -76 30 -93 0 -29 -251
-668 -259 -659 -2 2 -71 169 -152 371 -90 221 -160 381 -177 402 -45 55 -122
91 -196 91 -43 0 -70 -6 -93 -20 -39 -23 -42 -40 -9 -40 29 0 68 -36 94 -87
31 -59 132 -315 132 -333 0 -15 -138 -369 -149 -382 -4 -4 -71 153 -150 350
-146 359 -169 409 -212 449 -81 74 -234 84 -288 19 -12 -14 -10 -16 11 -16 38
0 77 -37 107 -99 14 -31 112 -269 216 -528 162 -402 193 -473 210 -473 17 0
39 48 144 310 68 171 127 313 131 315 5 3 52 -104 105 -238 154 -384 155 -387
175 -387 10 0 20 6 23 13 237 584 427 1067 427 1087 0 48 -64 78 -122 58z"/>
<path d="M4604 4561 c-67 -17 -69 -19 -47 -44 11 -12 24 -29 29 -37 5 -8 11
-231 14 -495 5 -439 7 -483 23 -513 34 -63 144 -90 225 -56 33 14 35 16 19 26
-39 22 -47 67 -47 278 0 220 3 236 59 283 41 34 82 42 120 22 62 -31 65 -47
71 -290 5 -196 8 -224 25 -254 29 -49 67 -73 122 -78 60 -6 140 22 111 38 -36
20 -42 51 -48 244 -5 168 -8 195 -27 230 -43 81 -120 129 -230 145 -72 10
-118 4 -170 -23 l-31 -17 -4 218 c-3 197 -5 220 -23 252 -35 58 -117 89 -191
71z"/>
<path d="M8450 4564 c-78 -13 -160 -51 -160 -75 0 -5 15 -9 33 -9 17 0 42 -8
53 -18 48 -39 49 -41 54 -512 6 -504 4 -495 83 -531 38 -17 69 -19 324 -19
305 0 328 3 338 50 8 35 -17 95 -45 110 -19 10 -26 5 -73 -46 -67 -73 -94 -84
-209 -84 -109 0 -151 17 -180 71 -16 30 -18 60 -18 251 l0 218 69 0 c62 0 78
-4 150 -42 75 -39 82 -41 97 -26 21 20 29 104 15 141 -14 37 -46 35 -112 -5
-46 -29 -62 -33 -136 -37 l-83 -3 0 219 c0 212 1 221 23 254 33 50 78 69 167
69 114 0 146 -13 211 -82 64 -68 86 -71 113 -14 21 44 20 69 -3 97 l-19 24
-334 1 c-183 1 -344 0 -358 -2z"/>
<path d="M13405 4559 c-148 -18 -283 -106 -342 -222 -20 -41 -26 -66 -25 -117
0 -79 19 -126 75 -187 60 -66 125 -104 261 -153 146 -54 225 -103 260 -163 80
-136 -35 -277 -227 -279 -128 -2 -221 60 -281 185 l-34 70 -31 -31 c-33 -33
-37 -54 -20 -99 43 -113 283 -191 462 -149 142 33 263 121 310 223 48 108 14
239 -85 328 -61 55 -99 75 -216 117 -225 79 -311 156 -300 269 7 64 43 110
115 146 50 24 70 28 143 28 64 0 95 -5 125 -20 58 -28 130 -106 151 -162 23
-64 29 -69 58 -50 30 20 42 70 27 110 -39 101 -250 179 -426 156z"/>
<path d="M17200 4563 c-14 -2 -38 -9 -54 -15 -23 -9 -26 -14 -15 -22 45 -35
44 -25 49 -530 5 -458 6 -483 25 -515 31 -52 64 -72 131 -77 45 -4 68 0 99 15
22 11 32 20 23 20 -10 1 -25 16 -35 34 -16 28 -18 60 -18 248 l0 216 27 35
c34 45 89 72 128 63 22 -5 70 -45 91 -78 1 -1 5 -106 8 -234 7 -258 9 -268 82
-306 41 -22 135 -18 171 7 19 13 20 16 5 16 -36 0 -49 63 -56 260 -8 209 -11
222 -85 287 -83 73 -252 101 -330 55 -20 -12 -39 -22 -42 -22 -2 0 -4 91 -4
203 0 111 -5 218 -10 238 -13 48 -56 86 -110 98 -25 6 -47 10 -50 9 -3 0 -16
-3 -30 -5z"/>
<path d="M18670 4563 c-73 -9 -160 -49 -160 -74 0 -5 15 -9 34 -9 47 0 81 -31
95 -84 7 -30 11 -186 11 -463 0 -389 1 -421 19 -453 28 -54 73 -75 156 -75 75
1 157 30 174 64 8 15 4 17 -25 18 -70 2 -104 58 -104 174 0 76 3 87 37 148 45
82 161 199 230 235 52 26 151 56 184 56 16 0 18 -24 21 -292 3 -318 5 -331 63
-376 52 -41 187 -36 256 11 34 23 52 51 26 41 -23 -9 -84 22 -104 52 -17 26
-18 64 -23 479 -5 472 -5 468 -52 512 -57 54 -212 45 -280 -15 -26 -22 -22
-32 12 -32 19 0 42 -11 62 -29 l33 -29 3 -146 c2 -80 0 -146 -5 -146 -38 -1
-152 -34 -201 -59 -75 -38 -169 -124 -222 -203 l-40 -60 0 314 c0 306 -1 315
-22 358 -32 63 -98 93 -178 83z"/>
<path d="M22221 4553 c-34 -64 -431 -1071 -431 -1094 0 -52 86 -80 137 -44 25
18 23 28 -19 90 -44 66 -44 83 0 150 79 123 227 228 337 241 l50 6 70 -178
c38 -98 82 -195 97 -216 36 -49 118 -95 184 -104 40 -5 62 -2 97 14 56 25 64
38 28 45 -62 13 -86 60 -302 594 -140 347 -211 509 -222 511 -8 2 -20 -5 -26
-15z m-11 -445 c36 -88 66 -164 68 -168 1 -4 -17 -10 -40 -14 -75 -12 -197
-79 -262 -143 -32 -32 -57 -53 -55 -47 26 72 215 534 219 534 3 0 34 -73 70
-162z"/>
<path d="M24243 4563 c-46 -8 -48 -29 -13 -96 54 -101 53 -108 -89 -459 -69
-170 -127 -308 -131 -308 -3 0 -66 150 -140 333 -73 182 -144 353 -156 378
-26 53 -88 112 -140 134 -71 30 -177 15 -213 -29 -12 -14 -10 -16 13 -16 16 0
40 -13 62 -32 31 -29 62 -99 243 -548 167 -413 212 -516 228 -518 17 -2 47 67
232 525 117 290 215 544 218 563 4 26 0 39 -14 51 -20 18 -66 28 -100 22z"/>
<path d="M25170 4561 c-19 -4 -44 -12 -55 -18 -19 -11 -19 -12 -2 -19 10 -3
25 -21 35 -38 15 -28 18 -83 22 -511 5 -528 3 -511 67 -552 33 -22 156 -25
191 -5 l22 13 -25 22 c-17 15 -28 39 -35 76 -6 30 -10 240 -10 482 0 476 -2
490 -64 528 -37 22 -97 31 -146 22z"/>
<path d="M5769 4060 c-239 -42 -352 -325 -208 -525 96 -133 289 -173 436 -88
61 34 93 103 48 103 -7 0 -16 -9 -20 -19 -9 -31 -73 -81 -101 -81 -60 0 -145
65 -199 151 -15 22 -25 42 -23 44 2 2 93 44 203 95 110 51 201 93 203 94 7 8
-56 107 -91 144 -70 71 -152 99 -248 82z m7 -50 c66 -25 134 -110 134 -167 0
-47 -40 -85 -137 -133 -46 -22 -85 -40 -87 -40 -2 0 -14 31 -26 70 -28 89 -26
206 5 240 34 38 67 46 111 30z"/>
<path d="M6330 4061 c-19 -4 -44 -12 -54 -18 -19 -10 -19 -11 1 -21 35 -19 42
-60 45 -282 3 -190 6 -220 23 -254 32 -63 64 -81 148 -81 44 0 82 6 97 15 19
10 21 15 9 17 -8 2 -24 18 -34 36 -18 28 -20 56 -23 237 -3 169 -1 213 12 243
33 81 114 72 207 -22 31 -31 61 -65 67 -76 11 -20 12 -19 37 6 31 31 42 92 23
129 -44 85 -251 93 -340 13 -17 -15 -20 -14 -43 11 -38 41 -109 60 -175 47z"/>
<path d="M7351 4059 c-104 -20 -195 -92 -239 -189 -21 -44 -26 -71 -26 -135
-1 -71 3 -88 32 -147 59 -120 161 -183 297 -183 65 0 90 5 136 26 65 31 99 63
99 96 0 32 -26 29 -44 -5 -21 -40 -49 -62 -89 -69 -45 -7 -109 28 -162 89 -37
44 -70 97 -63 104 2 2 92 44 199 93 106 50 195 95 197 100 5 16 -37 89 -75
132 -66 73 -167 107 -262 88z m13 -49 c41 -15 114 -88 126 -126 24 -71 -7
-112 -134 -176 -89 -45 -86 -46 -113 42 -21 68 -23 164 -4 208 22 51 72 73
125 52z"/>
<path d="M9343 4059 c-43 -8 -98 -32 -107 -47 -3 -5 6 -15 19 -22 38 -20 60
-78 109 -282 61 -255 83 -293 174 -305 56 -8 105 12 147 58 42 47 53 70 144
314 80 213 85 229 71 255 -20 37 -114 46 -141 13 -10 -11 -5 -28 22 -85 24
-49 34 -83 33 -112 -2 -50 -77 -249 -110 -293 -53 -69 -69 -44 -132 209 -27
108 -58 211 -68 229 -36 61 -87 82 -161 68z"/>
<path d="M10373 4060 c-110 -22 -195 -89 -242 -189 -37 -79 -38 -203 -2 -276
83 -168 270 -238 440 -165 55 24 104 73 99 98 -5 28 -27 24 -43 -8 -18 -35
-69 -70 -103 -70 -36 0 -95 35 -139 83 -35 38 -73 95 -73 110 0 2 90 46 200
97 110 51 200 98 200 105 0 22 -78 132 -112 158 -67 52 -149 72 -225 57z m26
-59 c21 -11 52 -36 70 -57 86 -97 60 -161 -94 -236 l-79 -38 -13 24 c-21 39
-43 136 -43 186 0 77 46 139 103 140 10 0 35 -9 56 -19z"/>
<path d="M10934 4060 c-66 -15 -69 -18 -47 -43 36 -40 38 -50 43 -282 4 -206
7 -233 25 -263 38 -63 143 -90 223 -56 33 14 35 16 19 26 -40 22 -47 67 -47
285 0 224 4 246 52 272 53 30 145 -25 225 -134 l22 -30 26 28 c19 21 25 39 25
73 0 62 -11 78 -71 104 -42 18 -66 21 -125 18 -63 -3 -79 -8 -119 -36 -54 -38
-56 -38 -72 -12 -26 40 -115 65 -179 50z"/>
<path d="M11715 4055 c-22 -8 -42 -15 -44 -15 -3 0 6 -12 20 -26 23 -25 24
-32 30 -218 7 -214 16 -252 80 -315 52 -52 111 -75 200 -75 66 -1 80 2 117 27
23 15 44 27 48 27 3 0 4 -100 2 -222 -3 -198 -6 -227 -23 -262 -71 -140 -224
-78 -242 99 -5 43 -10 55 -23 55 -43 0 -73 -84 -50 -140 18 -43 82 -95 136
-110 55 -16 169 -8 236 15 60 21 135 87 159 140 17 37 19 75 19 472 0 486 -1
493 -68 535 -43 27 -141 30 -186 6 -29 -15 -29 -16 -9 -27 35 -18 42 -66 44
-264 2 -180 1 -189 -23 -235 -27 -53 -77 -92 -118 -92 -33 0 -77 33 -93 69 -7
15 -13 118 -17 251 -4 193 -8 230 -23 253 -36 56 -105 77 -172 52z"/>
<path d="M14301 4059 c-101 -20 -193 -94 -236 -192 -54 -119 -28 -270 61 -362
107 -111 278 -135 411 -58 61 34 93 103 48 103 -7 0 -16 -9 -20 -19 -9 -30
-73 -81 -100 -81 -61 0 -135 53 -190 136 -20 30 -35 57 -33 59 1 1 93 44 203
95 110 51 201 93 202 94 1 1 -10 24 -23 51 -66 131 -193 200 -323 174z m16
-50 c34 -12 99 -74 119 -111 38 -72 5 -122 -118 -184 -50 -25 -91 -44 -93 -42
-2 2 -13 32 -25 67 -39 118 -27 236 29 266 32 17 51 18 88 4z"/>
<path d="M15037 4059 c-57 -13 -89 -33 -135 -83 -35 -38 -42 -53 -42 -85 0
-30 6 -44 22 -55 12 -9 26 -16 30 -16 3 0 12 24 18 54 27 131 141 201 228 140
32 -22 51 -64 58 -128 7 -54 6 -55 -22 -61 -195 -43 -316 -111 -356 -203 -50
-112 44 -222 189 -222 41 0 148 35 183 60 26 18 26 18 39 -2 21 -34 97 -61
157 -55 29 3 62 10 73 17 21 11 21 11 -4 33 -34 29 -45 96 -45 262 0 73 -5
147 -11 166 -15 44 -51 92 -89 119 -67 48 -213 77 -293 59z m183 -415 l0 -145
-35 -15 c-93 -39 -185 13 -185 103 1 42 33 105 71 137 39 33 129 77 141 70 4
-3 8 -70 8 -150z"/>
<path d="M15710 4063 c-14 -2 -37 -9 -53 -15 l-27 -11 24 -22 c32 -30 35 -51
39 -290 2 -175 5 -205 22 -239 32 -63 64 -81 148 -81 44 0 82 6 97 15 19 10
21 15 9 17 -8 2 -24 18 -34 36 -18 28 -20 56 -23 237 -3 169 -1 213 12 243 33
81 114 72 207 -22 31 -31 61 -65 67 -76 11 -20 12 -19 37 6 31 31 42 92 23
129 -44 85 -251 93 -340 13 -17 -15 -20 -14 -43 11 -35 38 -105 59 -165 49z"/>
<path d="M16721 4060 c-104 -22 -195 -94 -239 -190 -21 -44 -26 -71 -26 -135
-1 -71 3 -88 32 -147 59 -120 161 -183 297 -183 65 0 90 5 136 26 65 31 99 63
99 96 0 33 -26 29 -45 -6 -39 -76 -113 -92 -183 -41 -101 73 -201 271 -202
397 0 51 29 112 61 128 79 41 186 -9 259 -122 l27 -43 26 26 c31 30 44 83 28
112 -33 62 -168 102 -270 82z"/>
<path d="M20085 4063 c-77 -17 -142 -58 -177 -111 -26 -39 -24 -97 4 -116 12
-9 25 -16 29 -16 3 0 11 25 18 55 35 154 182 216 256 107 19 -29 25 -49 25
-94 l0 -57 -42 -11 c-141 -36 -220 -73 -284 -132 -74 -68 -83 -154 -23 -223
66 -74 190 -84 309 -23 l65 34 23 -28 c28 -34 91 -52 154 -45 53 7 104 29 77
34 -8 2 -24 18 -34 36 -16 27 -20 60 -25 217 -5 173 -7 188 -30 230 -32 56
-91 102 -161 122 -58 18 -152 28 -184 21z m158 -421 l5 -144 -36 -15 c-23 -9
-53 -13 -80 -10 -117 13 -136 153 -35 249 30 29 137 82 140 70 1 -4 4 -72 6
-150z"/>
<path d="M24542 4059 c-52 -10 -130 -63 -154 -104 -31 -55 -33 -81 -4 -109 34
-35 42 -33 50 15 9 55 39 111 76 142 94 79 210 12 210 -122 l0 -50 -42 -11
c-94 -23 -126 -34 -183 -62 -105 -51 -165 -121 -165 -191 0 -59 26 -104 79
-135 39 -23 57 -27 121 -27 65 0 85 4 144 34 l68 33 26 -25 c52 -49 128 -61
203 -30 38 15 40 17 20 24 -36 14 -45 55 -51 244 -6 212 -19 252 -99 310 -72
53 -209 82 -299 64z m179 -413 l4 -150 -35 -14 c-91 -37 -180 15 -180 104 0
58 18 92 75 142 36 32 121 76 132 68 0 0 3 -68 4 -150z"/>
<path d="M25634 4061 c-52 -13 -56 -19 -31 -52 20 -29 22 -44 27 -222 5 -174
8 -196 28 -239 40 -81 124 -134 226 -145 64 -7 117 9 168 49 36 28 37 28 51 8
38 -55 139 -75 217 -44 40 16 40 17 18 28 -39 19 -47 66 -47 282 -1 122 -5
214 -12 235 -31 93 -131 129 -242 87 l-28 -11 20 -21 c36 -38 41 -73 41 -259
0 -208 -9 -240 -76 -295 -45 -37 -80 -41 -118 -11 -48 38 -51 51 -56 289 -6
241 -12 269 -62 302 -30 20 -85 28 -124 19z"/>
<path d="M26793 4060 c-149 -30 -253 -146 -269 -297 -22 -203 162 -384 366
-360 97 12 200 75 200 124 0 32 -26 29 -44 -5 -60 -115 -186 -84 -290 72 -14
21 -26 42 -26 46 0 3 90 48 200 100 110 51 200 98 200 105 0 22 -77 132 -112
158 -67 52 -149 72 -225 57z m23 -56 c47 -22 112 -99 120 -140 4 -24 1 -42
-12 -62 -25 -38 -38 -48 -129 -93 l-79 -39 -13 24 c-26 50 -45 150 -40 204 11
105 70 145 153 106z"/>
<path d="M20805 4041 c-51 -23 -102 -81 -110 -125 -12 -59 11 -105 88 -176
218 -202 228 -215 192 -267 -39 -56 -157 -28 -194 46 -12 22 -21 47 -21 56 0
21 -33 19 -53 -3 -58 -64 49 -152 204 -169 152 -16 294 95 259 203 -16 49 -57
92 -171 184 -148 121 -169 153 -131 200 14 18 32 24 73 27 72 6 116 -22 144
-93 19 -47 22 -50 45 -42 49 18 52 53 9 102 -62 71 -238 101 -334 57z"/>
</g>
</svg>
