<svg xmlns="http://www.w3.org/2000/svg" width="754.484" height="780.556" viewBox="0 0 754.484 780.556"><defs><style>.a{fill:#5df;}.a,.b{opacity:0.3;}.b{fill:#ffc7c3;}</style></defs><g transform="translate(-805.758 -179)"><path class="a" d="M60,0H373a60,60,0,0,1,60,60V618a0,0,0,0,1,0,0H0a0,0,0,0,1,0,0V60A60,60,0,0,1,60,0Z" transform="translate(1082 179)"/><path class="b" d="M60,0H373a60,60,0,0,1,60,60V561.585L355.208,618H200.814L0,341.409V60A60,60,0,0,1,60,0Z" transform="matrix(0.588, -0.809, 0.809, 0.588, 805.758, 596.304)"/></g></svg>