<svg xmlns="http://www.w3.org/2000/svg" xmlns:xlink="http://www.w3.org/1999/xlink" width="686" height="618" viewBox="0 0 686 618"><defs><style>.a{fill:#fff;stroke:#707070;}.b{clip-path:url(#a);}.c{fill:#5df;}.c,.d{opacity:0.3;}.d{fill:#ffc7c3;}</style><clipPath id="a"><rect class="a" width="686" height="618" transform="translate(-915 669)"/></clipPath></defs><g class="b" transform="translate(915 -669)"><g transform="translate(-1745 490)"><path class="c" d="M60,0H373a60,60,0,0,1,60,60V618a0,0,0,0,1,0,0H0a0,0,0,0,1,0,0V60A60,60,0,0,1,60,0Z" transform="translate(1082 179)"/><path class="d" d="M60,0H373a60,60,0,0,1,60,60V561.585L355.208,618H200.814L0,341.409V60A60,60,0,0,1,60,0Z" transform="matrix(0.588, -0.809, 0.809, 0.588, 805.758, 596.304)"/></g></g></svg>