<svg xmlns="http://www.w3.org/2000/svg" width="255" height="245" viewBox="0 0 255 245"><defs><style>.a{fill:#55ddfd;}.a,.b,.c,.d{opacity:0.4;}.b{fill:#4b81d6;}.c{fill:#707070;}.d{fill:#ffc7c3;}</style></defs><g transform="translate(-405.333 -3208.333)"><path class="a" d="M100,0h40a0,0,0,0,1,0,0V140a0,0,0,0,1,0,0H0a0,0,0,0,1,0,0V100A100,100,0,0,1,100,0Z" transform="translate(405.333 3208.333)"/><path class="b" d="M0,0H140a0,0,0,0,1,0,0V40A100,100,0,0,1,40,140H0a0,0,0,0,1,0,0V0A0,0,0,0,1,0,0Z" transform="translate(520.333 3313.333)"/><path class="c" d="M0,0H1A88,88,0,0,1,89,88v0a0,0,0,0,1,0,0H0a0,0,0,0,1,0,0V0A0,0,0,0,1,0,0Z" transform="translate(524.333 3208.333)"/><path class="d" d="M0,0H88a0,0,0,0,1,0,0V88a0,0,0,0,1,0,0h0A88,88,0,0,1,0,0V0A0,0,0,0,1,0,0Z" transform="translate(457.333 3365.333)"/></g></svg>