<svg xmlns="http://www.w3.org/2000/svg" width="255.117" height="245" viewBox="0 0 255.117 245"><defs><style>.a{opacity:0.401;}.b{fill:#ffc7c3;}.c{fill:#55ddfd;}</style></defs><g class="a" transform="translate(-0.251)"><path class="b" d="M71.919,174.436c2.468,2.308,7.715,2.81,10.641-.618l18.727-21.366a7.473,7.473,0,0,0-11.249-9.84L76.316,158.267l-3.678-3.324a7.472,7.472,0,1,0-10.032,11.076Z" transform="translate(-30.043 -73.557)"/><path class="b" d="M217.4,182.345H174.264a7.469,7.469,0,1,0,0,14.937H217.4a7.469,7.469,0,1,0,0-14.937Z" transform="translate(-83.534 -95.381)"/><path class="b" d="M163.293,244.5H66.39a7.469,7.469,0,1,0,0,14.937h96.9a7.469,7.469,0,1,0,0-14.937Z" transform="translate(-29.425 -127.894)"/><path class="b" d="M71.919,346.216c2.468,2.308,7.715,2.81,10.641-.618l18.727-21.366a7.473,7.473,0,0,0-11.249-9.84L76.316,330.047l-3.678-3.324A7.472,7.472,0,1,0,62.606,337.8Z" transform="translate(-30.043 -163.771)"/><path class="b" d="M217.4,354.07H174.264a7.469,7.469,0,1,0,0,14.937H217.4a7.469,7.469,0,1,0,0-14.937Z" transform="translate(-83.534 -185.208)"/><path class="b" d="M163.293,415.337H66.39a7.469,7.469,0,1,0,0,14.937h96.9a7.469,7.469,0,1,0,0-14.937Z" transform="translate(-29.425 -218.697)"/><path class="c" d="M237.129,0H94.775A13.543,13.543,0,0,0,90.2.859,25.59,25.59,0,0,0,85.568.436,24.74,24.74,0,0,0,68.526,7.113a23.128,23.128,0,0,0-6.008,9.151h-7.99a10.494,10.494,0,0,0-10.633,9.544H17.53C8,25.808.251,33.237.251,42.369V228.439C.251,237.571,8,245,17.53,245H153.607a17.2,17.2,0,0,0,16.681-12.247h68.1c8.985-.523,17.149-8.348,16.98-17.478V17.478C255.365,7.841,247.184,0,237.129,0ZM58.81,30.595h9.907a7.333,7.333,0,0,0,7.475-7.022,9.394,9.394,0,0,1,18.752,0,7.333,7.333,0,0,0,7.475,7.022h9.907v7.892H58.81Zm97.123,197.844a2.282,2.282,0,0,1-2.327,2.23H17.53a2.282,2.282,0,0,1-2.327-2.23V42.368a2.282,2.282,0,0,1,2.327-2.23H43.858v1.523A11.419,11.419,0,0,0,55.5,52.818h60.139a11.419,11.419,0,0,0,11.64-11.157V40.138h26.328a2.282,2.282,0,0,1,2.327,2.23Zm84.48-13.164a3.188,3.188,0,0,1-2.9,3.121c-.072.008-.144.017-.215.027H170.885V42.368c0-9.131-7.751-16.561-17.279-16.561H127.237a10.593,10.593,0,0,0-10.722-9.544h-7.9c-.232-.657-.5-1.3-.8-1.933H237.129a3.222,3.222,0,0,1,3.284,3.147Z"/></g></svg>