<svg xmlns="http://www.w3.org/2000/svg" width="327.602" height="327.602" viewBox="0 0 327.602 327.602"><defs><style>.a{opacity:0.2;}.b{fill:#d5d5d5;}.c{fill:#4b81d6;}</style></defs><g class="a" transform="translate(0 113.722) rotate(-28)"><path class="b" d="M15.528,37.267V21.74H0V15.528H15.528V0H21.74V15.528H37.267V21.74H21.74V37.267Z" transform="translate(0 0)"/><path class="b" d="M15.528,37.267V21.74H0V15.528H15.528V0H21.74V15.528H37.267V21.74H21.74V37.267Z" transform="translate(68.322 0)"/><path class="b" d="M15.528,37.267V21.74H0V15.528H15.528V0H21.74V15.528H37.267V21.74H21.74V37.267Z" transform="translate(136.645 0)"/><path class="b" d="M15.528,37.267V21.74H0V15.528H15.528V0H21.74V15.528H37.267V21.74H21.74V37.267Z" transform="translate(204.967 0)"/><path class="b" d="M15.528,37.267V21.74H0V15.528H15.528V0H21.74V15.528H37.267V21.74H21.74V37.267Z" transform="translate(0 136.645)"/><path class="b" d="M15.528,37.267V21.74H0V15.528H15.528V0H21.74V15.528H37.267V21.74H21.74V37.267Z" transform="translate(68.322 136.645)"/><path class="b" d="M15.528,37.267V21.74H0V15.528H15.528V0H21.74V15.528H37.267V21.74H21.74V37.267Z" transform="translate(136.645 136.645)"/><path class="b" d="M15.528,37.267V21.74H0V15.528H15.528V0H21.74V15.528H37.267V21.74H21.74V37.267Z" transform="translate(201.91 135.899)"/><path class="b" d="M15.528,37.267V21.74H0V15.528H15.528V0H21.74V15.528H37.267V21.74H21.74V37.267Z" transform="translate(0 68.322)"/><path class="c" d="M15.528,37.267V21.74H0V15.528H15.528V0H21.74V15.528H37.267V21.74H21.74V37.267Z" transform="translate(68.322 68.322)"/><path class="b" d="M15.528,37.267V21.74H0V15.528H15.528V0H21.74V15.528H37.267V21.74H21.74V37.267Z" transform="translate(136.645 68.322)"/><path class="b" d="M15.528,37.267V21.74H0V15.528H15.528V0H21.74V15.528H37.267V21.74H21.74V37.267Z" transform="translate(204.967 68.322)"/><path class="b" d="M15.528,37.267V21.74H0V15.528H15.528V0H21.74V15.528H37.267V21.74H21.74V37.267Z" transform="translate(0 204.967)"/><path class="b" d="M15.528,37.267V21.74H0V15.528H15.528V0H21.74V15.528H37.267V21.74H21.74V37.267Z" transform="translate(68.322 204.967)"/><path class="b" d="M15.528,37.267V21.74H0V15.528H15.528V0H21.74V15.528H37.267V21.74H21.74V37.267Z" transform="translate(136.645 204.967)"/><path class="b" d="M15.528,37.267V21.74H0V15.528H15.528V0H21.74V15.528H37.267V21.74H21.74V37.267Z" transform="translate(204.967 204.967)"/></g></svg>