<svg xmlns="http://www.w3.org/2000/svg" xmlns:xlink="http://www.w3.org/1999/xlink" width="1920" height="165" viewBox="0 0 1920 165"><defs><style>.a,.c{fill:#4b81d6;}.a{stroke:#707070;}.b,.d{opacity:0.1;}.b{clip-path:url(#a);}.c{opacity:0.5;}.d{clip-path:url(#b);}</style><clipPath id="a"><rect class="a" width="1920" height="165" transform="translate(0 632)"/></clipPath><clipPath id="b"><rect class="a" width="1920" height="165"/></clipPath></defs><g transform="translate(0 -632)"><g class="b"><path class="c" d="M0,32H64c64,0,192,0,320,28.4,128,28.933,256,84.933,384,92.533,128,7.067,256-35.6,384-35.6S1408,160,1536,167.067c128,7.6,256-21.733,320-35.467l64-14.267V416H0Z" transform="translate(0 600)"/></g><g class="d" transform="translate(0 632)"><path class="c" d="M1920,32h-64c-64,0-192,0-320,28.4-128,28.933-256,84.933-384,92.533-128,7.067-256-35.6-384-35.6S512,160,384,167.067c-128,7.6-256-21.733-320-35.467L0,117.333V416H1920Z" transform="translate(0 -32)"/></g></g></svg>